<svg width="862" height="751" viewBox="0 0 862 751" fill="none" xmlns="http://www.w3.org/2000/svg">
<path d="M144 2.66657L118 3.33323L126.133 9.5999C130.667 13.0666 136 17.7332 137.867 19.9999L141.333 24.2666L141.2 104.4C141.067 148.533 140.667 213.467 140.133 248.667C139.2 311.6 139.2 312.8 136.133 320.667C133.067 328.267 124.533 338.667 120 340.267C118.933 340.667 118.533 341.467 119.067 342.133C120.533 343.6 174.8 344.4 176.933 342.933C178.267 342.133 177.067 340.133 172.667 335.467C165.733 327.867 161.467 317.467 160.667 306.133C159.467 288.533 158.8 48.9332 159.867 50.1332C160.667 50.7999 179.6 94.2666 202 146.667C240.8 236.8 267.067 296.8 280.267 325.333C283.6 332.267 286.667 339.733 287.2 341.733C288 345.2 288.4 345.333 295.867 345.333C300.533 345.333 304.267 344.667 305.067 343.6C305.733 342.8 310.267 332.667 315.067 321.333C319.867 310 337.333 268.533 354 229.333C370.533 190.133 394.4 133.333 406.933 103.333C419.467 73.1999 430.267 48.1332 430.933 47.3332C431.6 46.5332 431.867 101.333 431.733 179.333C431.333 332 432.267 320.533 419.067 334.667C415.2 338.933 412 342.667 412 343.2C412 343.6 431.467 344 455.333 344C479.2 344 498.667 343.6 498.667 342.933C498.667 342.4 496.267 340.667 493.333 338.933C486.8 335.2 480.933 327.467 477.733 318.267C475.467 311.733 475.333 303.467 475.6 172.8C476 45.4666 476.133 33.7332 478.267 26.9332C480.933 18.6666 490.267 7.1999 495.467 5.86657C497.2 5.46657 498.667 4.53323 498.667 3.9999C498.667 2.53323 469.2 1.06657 447.6 1.5999L429.2 1.9999L418.533 27.3332C412.533 41.1999 399.2 73.4666 388.533 98.9332C378 124.4 362.8 160.667 354.8 179.6C346.933 198.533 334.267 228.933 326.8 247.333C311.733 284.533 311.333 285.2 309.467 283.333C308.667 282.533 296.4 254.933 282 222C267.733 188.933 254.267 158.133 252.133 153.333C246.933 141.867 225.2 91.5999 204.4 43.3332C195.2 21.9999 187.067 3.86657 186.4 2.93323C185.467 1.9999 182.267 1.46657 177.467 1.5999C173.333 1.73323 158.267 2.26657 144 2.66657Z" fill="white"/>
<path d="M567.067 2.3999C565.867 3.1999 567.333 5.46657 572 9.9999C576.133 14.1332 579.867 19.3332 581.733 23.9999L584.667 31.3332L585.067 170.667C585.333 308 585.333 310.133 582.667 319.067C580.4 326.533 578.667 329.2 572.4 335.333C568.267 339.467 565.333 343.2 565.867 343.733C566.933 344.667 648.133 344.133 649.2 343.2C649.6 342.933 647.2 340.533 644.133 337.867C637.2 331.867 632.533 322.8 630.667 311.867C629.867 306.933 629.333 278 629.333 242.933V182.533L675.733 182.933C721.067 183.333 722.133 183.333 728.933 186.533C737.2 190.133 747.067 200.267 750.8 208.667C752.667 212.8 754.267 214.667 756.133 214.667C758.667 214.667 758.667 213.733 758.4 174.267C758 135.6 757.867 134 755.467 134C753.6 134 752.4 135.6 751.067 139.6C748.667 146.8 740.533 156 733.2 159.6C723.2 164.533 712.667 165.467 670 165.067L630 164.667V91.3332V17.9999H686.667C741.333 18.1332 743.6 18.1332 750.933 20.9332C766.667 26.9332 775.333 35.9999 787.867 59.9999C788.533 61.0666 789.867 62.1332 790.933 62.3999C792.667 62.6666 793.067 58.3999 793.867 33.4666C794.4 17.3332 794.533 3.46657 794 2.66657C793.067 1.06657 569.6 0.799901 567.067 2.3999Z" fill="white"/>
<path d="M3.59996 458.267C3.06663 458.667 2.66663 462.667 2.66663 466.933V474.667H431.333H860V466.8V459.067L853.067 458.133C843.6 457.067 4.66663 457.067 3.59996 458.267Z" fill="white"/>
<path d="M325.333 595.467C304 601.2 285.733 616.4 276.267 636C273.333 642.267 270.133 651.067 269.2 655.733C267.067 666.8 268.4 686.4 271.867 696.4C280.933 722.533 302.4 742 327.867 747.467C381.333 758.8 428 720 424.933 666.667C423.733 645.467 416.533 629.6 401.2 614.4C391.333 604.667 378.133 597.333 365.6 594.8C355.733 592.8 334.133 593.067 325.333 595.467ZM358.933 613.467C402.533 622.8 418.8 678.667 387.867 712.667C371.733 730.267 344.4 735.2 321.867 724.8C300.133 714.667 286.4 687.6 290.267 662.533C295.6 628 325.867 606.533 358.933 613.467Z" fill="white"/>
<path d="M496 594.533L487.333 595.333V671.333V747.333H497.333H507.333L508 688.667L508.667 630L513.867 639.333C532.267 672.267 556.533 714.267 558 715.867C558.933 716.8 560.533 717.333 561.6 717.067C562.533 716.667 572.267 700.533 583.2 681.2C594.267 661.867 605.333 642.4 607.867 638L612.667 630L613.333 688.667L614 747.333H624H634V671.333V595.333L623.467 594.667C617.733 594.267 612.533 594.267 612 594.667C611.467 595.067 602.4 610.933 592 630C562.533 683.733 561.2 685.867 559.2 683.733C558.267 682.8 547.067 663.2 534.267 640.133C511.467 599.2 507.733 593.067 505.733 593.6C505.067 593.733 500.8 594.133 496 594.533Z" fill="white"/>
<path d="M727.733 595.6L702.667 596V671.333V746.667L749.067 746.4L795.333 746L795.733 741.467C796 738.933 795.867 734.8 795.333 732.4L794.533 728H759.333H724V703.467C724 682.4 724.267 678.8 726.133 678.133C727.333 677.733 740.8 677.333 756.133 677.333H784.133L783.733 668.266L783.333 659.333L753.867 658.933L724.4 658.666L723.6 637.866C723.067 626.4 723.067 616.533 723.467 615.866C723.867 615.2 739.6 614.666 758.667 614.666H793.067L793.867 608.266C794.267 604.8 794.4 600.533 794.267 598.666L794 595.333H773.333C762 595.2 741.467 595.466 727.733 595.6Z" fill="white"/>
<path d="M81.0667 596.933C80.9333 597.466 80.8 631.466 81.0667 672.4L81.4667 746.8L91.7333 746.4L102 746L102.4 712.266L102.667 678.666L143.733 678.933L184.667 679.333L185.067 713.066L185.333 746.8L195.733 746.4L206 746L206.4 670.933L206.667 596H196H185.333V627.333V658.666H144H102.667L102.4 627.6L102 596.666L91.7333 596.266C86.1333 596 81.3333 596.4 81.0667 596.933Z" fill="white"/>
</svg>
