<?xml version="1.0" standalone="no"?>
<!DOCTYPE svg PUBLIC "-//W3C//DTD SVG 20010904//EN"
 "http://www.w3.org/TR/2001/REC-SVG-20010904/DTD/svg10.dtd">
<svg version="1.0" xmlns="http://www.w3.org/2000/svg"
 width="646.000000pt" height="563.000000pt" viewBox="0 0 646.000000 563.000000"
 preserveAspectRatio="xMidYMid meet">

<g transform="translate(0.000000,563.000000) scale(0.100000,-0.100000)"
fill="#000000" stroke="none">
<path d="M1080 5610 l-195 -5 61 -47 c34 -26 74 -61 88 -78 l26 -32 -1 -601
c-1 -331 -4 -818 -8 -1082 -7 -472 -7 -481 -30 -540 -23 -57 -87 -135 -121
-147 -8 -3 -11 -9 -7 -14 11 -11 418 -17 434 -6 10 6 1 21 -32 56 -52 57 -84
135 -90 220 -9 132 -14 1929 -6 1920 6 -5 148 -331 316 -724 291 -676 488
-1126 587 -1340 25 -52 48 -108 52 -123 6 -26 9 -27 65 -27 35 0 63 5 69 13 5
6 39 82 75 167 36 85 167 396 292 690 124 294 303 720 397 945 94 226 175 414
180 420 5 6 7 -405 6 -990 -3 -1145 4 -1059 -95 -1165 -29 -32 -53 -60 -53
-64 0 -3 146 -6 325 -6 179 0 325 3 325 8 0 4 -18 17 -40 30 -49 28 -93 86
-117 155 -17 49 -18 111 -16 1091 3 955 4 1043 20 1094 20 62 90 148 129 158
13 3 24 10 24 14 0 11 -221 22 -383 18 l-138 -3 -80 -190 c-45 -104 -145 -346
-225 -537 -79 -191 -193 -463 -253 -605 -59 -142 -154 -370 -210 -508 -113
-279 -116 -284 -130 -270 -6 6 -98 213 -206 460 -107 248 -208 479 -224 515
-39 86 -202 463 -358 825 -69 160 -130 296 -135 303 -7 7 -31 11 -67 10 -31
-1 -144 -5 -251 -8z"/>
<path d="M4253 5612 c-9 -6 2 -23 37 -57 31 -31 59 -70 73 -105 l22 -55 3
-1045 c2 -1030 2 -1046 -18 -1113 -17 -56 -30 -76 -77 -122 -31 -31 -53 -59
-49 -63 8 -7 617 -3 625 4 3 2 -15 20 -38 40 -52 45 -87 113 -101 195 -6 37
-10 254 -10 517 l0 453 348 -3 c340 -3 348 -3 399 -27 62 -27 136 -103 164
-166 14 -31 26 -45 40 -45 19 0 19 7 17 303 -3 290 -4 302 -22 302 -14 0 -23
-12 -33 -42 -18 -54 -79 -123 -134 -150 -75 -37 -154 -44 -474 -41 l-300 3 0
550 0 550 425 0 c410 -1 427 -1 482 -22 118 -45 183 -113 277 -293 5 -8 15
-16 23 -18 13 -2 16 30 22 217 4 121 5 225 1 231 -7 12 -1683 14 -1702 2z"/>
<path d="M27 2193 c-4 -3 -7 -33 -7 -65 l0 -58 3215 0 3215 0 0 59 0 58 -52 7
c-71 8 -6363 8 -6371 -1z"/>
<path d="M2440 1164 c-160 -43 -297 -157 -368 -304 -22 -47 -46 -113 -53 -148
-16 -83 -6 -230 20 -305 68 -196 229 -342 420 -383 401 -85 751 206 728 606
-9 159 -63 278 -178 392 -74 73 -173 128 -267 147 -74 15 -236 13 -302 -5z
m252 -135 c327 -70 449 -489 217 -744 -121 -132 -326 -169 -495 -91 -163 76
-266 279 -237 467 40 259 267 420 515 368z"/>
<path d="M3720 1171 l-65 -6 0 -570 0 -570 75 0 75 0 5 440 5 440 39 -70 c138
-247 320 -562 331 -574 7 -7 19 -11 27 -9 7 3 80 124 162 269 83 145 166 291
185 324 l36 60 5 -440 5 -440 75 0 75 0 0 570 0 570 -79 5 c-43 3 -82 3 -86 0
-4 -3 -72 -122 -150 -265 -221 -403 -231 -419 -246 -403 -7 7 -91 154 -187
327 -171 307 -199 353 -214 349 -5 -1 -37 -4 -73 -7z"/>
<path d="M5458 1163 l-188 -3 0 -565 0 -565 348 2 347 3 3 34 c2 19 1 50 -3
68 l-6 33 -264 0 -265 0 0 184 c0 158 2 185 16 190 9 3 110 6 225 6 l210 0 -3
68 -3 67 -221 3 -221 2 -6 156 c-4 86 -4 160 -1 165 3 5 121 9 264 9 l258 0 6
48 c3 26 4 58 3 72 l-2 25 -155 0 c-85 1 -239 -1 -342 -2z"/>
<path d="M608 1153 c-1 -4 -2 -259 0 -566 l3 -558 77 3 77 3 3 253 2 252 308
-2 307 -3 3 -253 2 -253 78 3 77 3 3 563 2 562 -80 0 -80 0 0 -235 0 -235
-310 0 -310 0 -2 233 -3 232 -77 3 c-42 2 -78 -1 -80 -5z"/>
</g>
</svg>
